<svg xmlns="http://www.w3.org/2000/svg" width="36" height="36" viewBox="0 0 36 36"><defs><style>.a{fill:#fff;}</style></defs><path class="a" d="M292.6,508.668q-.869.142-1.743.261Q291.73,508.81,292.6,508.668Zm0,0" transform="translate(-271.148 -473.573)"/><path class="a" d="M300.17,507.793c-.277.051-.554.1-.83.145C299.616,507.891,299.893,507.844,300.17,507.793Zm0,0" transform="translate(-278.654 -472.935)"/><path class="a" d="M279.653,510.34q-1.016.115-2.044.2Q278.636,510.456,279.653,510.34Zm0,0" transform="translate(-258.924 -474.791)"/><path class="a" d="M287.426,509.738c-.326.043-.653.084-.98.122C286.772,509.822,287.1,509.781,287.426,509.738Zm0,0" transform="translate(-266.714 -474.352)"/><path class="a" d="M307.4,506.41c-.244.052-.489.1-.734.154C306.909,506.514,307.154,506.462,307.4,506.41Zm0,0" transform="translate(-285.429 -471.928)"/><path class="a" d="M325.076,502.113c-.2.056-.394.109-.592.164C324.682,502.222,324.879,502.169,325.076,502.113Zm0,0" transform="translate(-301.948 -468.797)"/><path class="a" d="M319.7,503.543c-.214.056-.43.113-.645.168Q319.382,503.629,319.7,503.543Zm0,0" transform="translate(-296.924 -469.839)"/><path class="a" d="M312.752,505.254c-.227.053-.456.1-.685.154C312.3,505.357,312.525,505.307,312.752,505.254Zm0,0" transform="translate(-290.435 -471.085)"/><path class="a" d="M274.579,511.09q-.549.046-1.1.083Q274.031,511.136,274.579,511.09Zm0,0" transform="translate(-254.689 -475.337)"/><path class="a" d="M36,18A18,18,0,1,0,18,36c.106,0,.211,0,.316,0V21.984H14.449V17.477h3.867V14.16c0-3.846,2.348-5.94,5.779-5.94a31.834,31.834,0,0,1,3.467.177v4.02H25.2c-1.867,0-2.228.887-2.228,2.189v2.87h4.463l-.582,4.507H22.969V35.3A18.01,18.01,0,0,0,36,18Zm0,0"/><path class="a" d="M267.069,511.43q-1.085.07-2.178.108Q265.983,511.5,267.069,511.43Zm0,0" transform="translate(-247.114 -475.585)"/><path class="a" d="M261.658,511.836q-.576.019-1.154.029Q261.081,511.855,261.658,511.836Zm0,0" transform="translate(-242.626 -475.881)"/></svg>