<svg xmlns="http://www.w3.org/2000/svg" width="36" height="36" viewBox="0 0 36 36"><defs><style>.a{fill:#fff;}</style></defs><path class="a" d="M214.076,210.538A3.538,3.538,0,1,1,210.538,207,3.538,3.538,0,0,1,214.076,210.538Zm0,0" transform="translate(-192.538 -192.538)"/><path class="a" d="M152.461,137.93a3.515,3.515,0,0,0-2.014-2.014,5.873,5.873,0,0,0-1.971-.365c-1.119-.051-1.455-.062-4.289-.062s-3.17.011-4.289.062a5.877,5.877,0,0,0-1.971.366,3.516,3.516,0,0,0-2.015,2.014,5.875,5.875,0,0,0-.365,1.971c-.051,1.119-.062,1.455-.062,4.289s.011,3.17.062,4.289a5.872,5.872,0,0,0,.365,1.971,3.515,3.515,0,0,0,2.014,2.014,5.865,5.865,0,0,0,1.971.366c1.119.051,1.455.062,4.289.062s3.17-.011,4.289-.062a5.865,5.865,0,0,0,1.971-.366,3.515,3.515,0,0,0,2.014-2.014,5.877,5.877,0,0,0,.366-1.971c.051-1.119.062-1.455.062-4.289s-.011-3.17-.062-4.289A5.865,5.865,0,0,0,152.461,137.93Zm-8.274,11.71a5.45,5.45,0,1,1,5.45-5.45A5.45,5.45,0,0,1,144.186,149.64Zm5.666-9.842a1.274,1.274,0,1,1,1.274-1.274A1.274,1.274,0,0,1,149.852,139.8Zm0,0" transform="translate(-126.186 -126.19)"/><path class="a" d="M18,0A18,18,0,1,0,36,18,18,18,0,0,0,18,0ZM28.274,22.261a7.583,7.583,0,0,1-.48,2.509,5.285,5.285,0,0,1-3.023,3.023,7.589,7.589,0,0,1-2.509.48c-1.1.05-1.454.062-4.261.062s-3.159-.012-4.262-.062a7.589,7.589,0,0,1-2.509-.48A5.285,5.285,0,0,1,8.207,24.77a7.581,7.581,0,0,1-.48-2.509c-.051-1.1-.063-1.455-.063-4.262s.012-3.159.062-4.261a7.584,7.584,0,0,1,.48-2.509A5.289,5.289,0,0,1,11.23,8.207a7.59,7.59,0,0,1,2.509-.48c1.1-.05,1.454-.062,4.261-.062s3.159.012,4.261.063a7.592,7.592,0,0,1,2.509.48,5.286,5.286,0,0,1,3.023,3.023,7.583,7.583,0,0,1,.481,2.509c.05,1.1.062,1.454.062,4.261S28.324,21.159,28.274,22.261Zm0,0"/></svg>