<svg xmlns="http://www.w3.org/2000/svg" width="35" height="35" viewBox="0 0 35 35"><defs><style>.a{fill:#fff;}</style></defs><path class="a" d="M17.5,0A17.5,17.5,0,1,0,35,17.5,17.5,17.5,0,0,0,17.5,0Zm7.99,13.645q.012.258.011.519A11.351,11.351,0,0,1,14.073,25.592h0a11.37,11.37,0,0,1-6.157-1.8,8.17,8.17,0,0,0,.958.056,8.06,8.06,0,0,0,4.989-1.719,4.021,4.021,0,0,1-3.753-2.79,4,4,0,0,0,1.814-.069A4.018,4.018,0,0,1,8.7,15.328c0-.018,0-.034,0-.051a3.989,3.989,0,0,0,1.819.5,4.02,4.02,0,0,1-1.244-5.362,11.4,11.4,0,0,0,8.279,4.2A4.019,4.019,0,0,1,24.4,10.95a8.057,8.057,0,0,0,2.551-.975A4.032,4.032,0,0,1,25.187,12.2a8.011,8.011,0,0,0,2.307-.633,8.163,8.163,0,0,1-2,2.08Zm0,0"/></svg>