<svg xmlns="http://www.w3.org/2000/svg" width="36" height="36" viewBox="0 0 36 36"><defs><style>.a{fill:#fff;}</style></defs><path class="a" d="M224.113,214.9l5.953-3.429-5.953-3.428Zm0,0" transform="translate(-208.406 -193.468)"/><path class="a" d="M18,0A18,18,0,1,0,36,18,18,18,0,0,0,18,0ZM29.247,18.018a29.708,29.708,0,0,1-.463,5.411A2.818,2.818,0,0,1,26.8,25.412c-1.76.463-8.8.463-8.8.463s-7.023,0-8.8-.482a2.819,2.819,0,0,1-1.983-1.983A29.578,29.578,0,0,1,6.752,18a29.689,29.689,0,0,1,.463-5.41,2.876,2.876,0,0,1,1.983-2c1.76-.463,8.8-.463,8.8-.463s7.041,0,8.8.482a2.819,2.819,0,0,1,1.983,1.983,28.192,28.192,0,0,1,.463,5.429Zm0,0"/></svg>